<svg xmlns="http://www.w3.org/2000/svg" width="1400" height="900" viewBox="0 0 1400 900" role="img" aria-labelledby="title desc">
  <title id="title">RouteWonder: Bergen es una trampa para turistas. A no ser que hagas esto</title>
  <desc id="desc">Ilustración editorial 11 para Bergen es una trampa para turistas. A no ser que hagas esto, con motivo coast.</desc>
  
  <defs>
    <pattern id="grid" width="58" height="70" patternUnits="userSpaceOnUse">
      <path d="M0 .5H80M.5 0V80" stroke="#1f4657" stroke-opacity=".08" fill="none"/>
    </pattern>
    <filter id="noise">
      <feTurbulence type="fractalNoise" baseFrequency=".75" numOctaves="3" stitchTiles="stitch"/>
      <feColorMatrix type="saturate" values="0"/>
      <feComponentTransfer><feFuncA type="table" tableValues="0 0.1"/></feComponentTransfer>
    </filter>
    <linearGradient id="wash" x1="0" y1="0" x2="1" y2="1">
      <stop offset="0" stop-color="#f5efe3"/>
      <stop offset=".58" stop-color="#f0dcc4" stop-opacity=".18"/>
      <stop offset="1" stop-color="#d8b15f" stop-opacity=".55"/>
    </linearGradient>
  </defs>
  <rect width="1400" height="900" fill="url(#wash)"/>
  <rect width="1400" height="900" fill="url(#grid)"/>
  <rect width="1400" height="900" filter="url(#noise)" opacity=".58"/>
  
    <path d="M0 720 C210 650 390 690 560 620 C730 548 880 555 1020 475 C1180 382 1310 420 1400 465 V900 H0Z" fill="#d8b15f" opacity=".56"/>
    <path d="M0 610 C160 560 310 615 470 570 C630 520 820 535 980 475 C1160 408 1280 455 1400 425" fill="none" stroke="#1f4657" stroke-width="11" stroke-opacity=".24"/>
    <g transform="translate(170 530)"><rect width="72" height="105" rx="6" fill="#71a4a8" opacity=".82"/><path d="M0 0 L36 -34 L72 0Z" fill="#d8b15f"/></g><g transform="translate(285 549)"><rect width="72" height="105" rx="6" fill="#f5efe3" opacity=".82"/><path d="M0 0 L36 -34 L72 0Z" fill="#d8b15f"/></g><g transform="translate(400 486)"><rect width="72" height="105" rx="6" fill="#71a4a8" opacity=".82"/><path d="M0 0 L36 -34 L72 0Z" fill="#d8b15f"/></g><g transform="translate(610 505)"><rect width="104" height="142" rx="6" fill="#f5efe3" opacity=".82"/><path d="M0 0 L52 -34 L104 0Z" fill="#d8b15f"/></g><g transform="translate(760 524)"><rect width="104" height="142" rx="6" fill="#71a4a8" opacity=".82"/><path d="M0 0 L52 -34 L104 0Z" fill="#d8b15f"/></g><g transform="translate(1020 543)"><rect width="72" height="105" rx="6" fill="#f5efe3" opacity=".82"/><path d="M0 0 L36 -34 L72 0Z" fill="#d8b15f"/></g><g transform="translate(1135 480)"><rect width="72" height="105" rx="6" fill="#71a4a8" opacity=".82"/><path d="M0 0 L36 -34 L72 0Z" fill="#d8b15f"/></g><g transform="translate(1250 499)"><rect width="72" height="105" rx="6" fill="#f5efe3" opacity=".82"/><path d="M0 0 L36 -34 L72 0Z" fill="#d8b15f"/></g>
    <path d="M0 620 C220 582 380 652 595 620 S930 586 1400 620" fill="none" stroke="#f0dcc4" stroke-opacity=".48" stroke-width="4"/><path d="M0 685 C220 647 380 717 595 685 S930 651 1400 685" fill="none" stroke="#f5efe3" stroke-opacity=".48" stroke-width="8"/><path d="M0 750 C220 712 380 782 595 750 S930 716 1400 750" fill="none" stroke="#f0dcc4" stroke-opacity=".48" stroke-width="4"/><path d="M0 815 C220 777 380 847 595 815 S930 781 1400 815" fill="none" stroke="#f5efe3" stroke-opacity=".48" stroke-width="8"/>
</svg>
