<svg xmlns="http://www.w3.org/2000/svg" width="1400" height="900" viewBox="0 0 1400 900" role="img" aria-labelledby="title desc">
  <title id="title">RouteWonder: Bergen es una trampa para turistas. A no ser que hagas esto</title>
  <desc id="desc">Ilustración editorial 4 para Bergen es una trampa para turistas. A no ser que hagas esto, con motivo coast.</desc>
  
  <defs>
    <pattern id="grid" width="76" height="66" patternUnits="userSpaceOnUse">
      <path d="M0 .5H80M.5 0V80" stroke="#1f4657" stroke-opacity=".08" fill="none"/>
    </pattern>
    <filter id="noise">
      <feTurbulence type="fractalNoise" baseFrequency=".75" numOctaves="3" stitchTiles="stitch"/>
      <feColorMatrix type="saturate" values="0"/>
      <feComponentTransfer><feFuncA type="table" tableValues="0 0.08"/></feComponentTransfer>
    </filter>
    <linearGradient id="wash" x1="0" y1="0" x2="1" y2="1">
      <stop offset="0" stop-color="#f5efe3"/>
      <stop offset=".58" stop-color="#f0dcc4" stop-opacity=".18"/>
      <stop offset="1" stop-color="#d8b15f" stop-opacity=".55"/>
    </linearGradient>
  </defs>
  <rect width="1400" height="900" fill="url(#wash)"/>
  <rect width="1400" height="900" fill="url(#grid)"/>
  <rect width="1400" height="900" filter="url(#noise)" opacity=".58"/>
  
      <path d="M0 640 C220 560 360 605 520 535 C710 450 910 510 1080 420 C1210 350 1320 360 1400 405 V900 H0Z" fill="#1f4657" opacity=".22"/>
      <path d="M0 760 C180 705 350 790 560 720 S970 620 1400 710 V900 H0Z" fill="#d8b15f" opacity=".48"/>
      <path d="M1050 350 L1110 210 L1170 350Z" fill="#1f4657" opacity=".78"/><rect x="1080" y="350" width="60" height="210" rx="8" fill="#f5efe3" stroke="#1f4657" stroke-opacity=".22"/>
      <circle cx="1110" cy="252" r="22" fill="#d8b15f"/>
      <g transform="translate(510 505)"><rect width="120" height="140" rx="8" fill="#71a4a8" opacity=".82"/><path d="M0 0 L60 -48 L120 0Z" fill="#d8b15f"/></g><g transform="translate(700 470)"><rect width="142" height="170" rx="8" fill="#f5efe3" opacity=".86" stroke="#1f4657" stroke-opacity=".14"/><path d="M0 0 L71 -54 L142 0Z" fill="#d8b15f"/></g>
      <path d="M0 600 C260 560 430 630 640 600 S990 555 1400 600" fill="none" stroke="#f0dcc4" stroke-opacity=".52" stroke-width="5"/><path d="M0 675 C260 635 430 705 640 675 S990 630 1400 675" fill="none" stroke="#f5efe3" stroke-opacity=".52" stroke-width="9"/><path d="M0 748 C260 708 430 778 640 748 S990 703 1400 748" fill="none" stroke="#f0dcc4" stroke-opacity=".52" stroke-width="5"/><path d="M0 818 C260 778 430 848 640 818 S990 773 1400 818" fill="none" stroke="#f5efe3" stroke-opacity=".52" stroke-width="9"/>
</svg>
