<svg xmlns="http://www.w3.org/2000/svg" width="1400" height="900" viewBox="0 0 1400 900" role="img" aria-labelledby="title desc"><title id="title">Burdeos sin coche propio: la ruta en tren que casi nadie hace</title><desc id="desc">Visual único 7 para Burdeos sin coche propio: la ruta en tren que casi nadie hace.</desc><defs><pattern id="g" width="90" height="90" patternUnits="userSpaceOnUse"><path d="M90 0H0v90" fill="none" stroke="#18231f" stroke-width="1" opacity=".08"/></pattern></defs><rect width="1400" height="900" fill="#f8f5eb"/><rect width="1400" height="900" fill="url(#g)"/><path d="M0 640 230 370l96 126 92-178 174 290 148-226 126 153 183-244 351 398v211H0z" fill="#263a34"/><path d="M170 680c142-78 270-88 404-36 126 49 218 34 320-42 113-84 220-91 338-30" fill="none" stroke="#b15f3e" stroke-width="14" stroke-linecap="round"/><path d="M170 680c142-78 270-88 404-36 126 49 218 34 320-42 113-84 220-91 338-30" fill="none" stroke="#f8f5eb" stroke-width="4" stroke-linecap="round"/><rect x="96" y="96" width="680" height="158" rx="22" fill="#f8f5eb" opacity=".92" stroke="#b15f3e" stroke-opacity=".22"/><text x="126" y="154" font-family="Inter, sans-serif" font-size="18" font-weight="800" fill="#b15f3e">ATLAS EDITORIAL · 7</text><text x="126" y="215" font-family="Georgia, serif" font-size="42" font-weight="700" fill="#18231f">Burdeos sin coche propio: la ruta en tren que ca</text></svg>