<svg xmlns="http://www.w3.org/2000/svg" width="1400" height="900" viewBox="0 0 1400 900" role="img" aria-labelledby="title desc">
  <title id="title">RouteWonder: Corfú sin hoteles frente al mar: la isla que hay detrás</title>
  <desc id="desc">Ilustración editorial 7 para Corfú sin hoteles frente al mar: la isla que hay detrás, con motivo island.</desc>
  
  <defs>
    <pattern id="grid" width="71" height="69" patternUnits="userSpaceOnUse">
      <path d="M0 .5H80M.5 0V80" stroke="#1d4b4d" stroke-opacity=".08" fill="none"/>
    </pattern>
    <filter id="noise">
      <feTurbulence type="fractalNoise" baseFrequency=".75" numOctaves="3" stitchTiles="stitch"/>
      <feColorMatrix type="saturate" values="0"/>
      <feComponentTransfer><feFuncA type="table" tableValues="0 0.11"/></feComponentTransfer>
    </filter>
    <linearGradient id="wash" x1="0" y1="0" x2="1" y2="1">
      <stop offset="0" stop-color="#f8f1df"/>
      <stop offset=".58" stop-color="#efe2c3" stop-opacity=".18"/>
      <stop offset="1" stop-color="#d69a4d" stop-opacity=".55"/>
    </linearGradient>
  </defs>
  <rect width="1400" height="900" fill="url(#wash)"/>
  <rect width="1400" height="900" fill="url(#grid)"/>
  <rect width="1400" height="900" filter="url(#noise)" opacity=".58"/>
  
    <rect y="560" width="1400" height="340" fill="#efe2c3" opacity=".34"/>
    <path d="M0 585 C170 543 330 633 520 585 S865 535 1400 577" fill="none" stroke="#1d4b4d" stroke-opacity=".16" stroke-width="5"/><path d="M0 655 C170 613 330 703 520 655 S865 605 1400 665" fill="none" stroke="#f8f1df" stroke-opacity=".58" stroke-width="9"/><path d="M0 732 C170 690 330 780 520 732 S865 682 1400 724" fill="none" stroke="#1d4b4d" stroke-opacity=".16" stroke-width="5"/><path d="M0 805 C170 763 330 853 520 805 S865 755 1400 815" fill="none" stroke="#f8f1df" stroke-opacity=".58" stroke-width="9"/>
    <path d="M280 565 C368 395 510 451 595 568 C490 615 370 595 280 565Z" fill="#85a98a" opacity=".82"/><path d="M575 588 C663 418 805 468 890 577 C785 626 665 606 575 588Z" fill="#d69a4d" opacity=".82"/><path d="M900 569 C988 405 1130 445 1215 586 C1110 613 990 599 900 569Z" fill="#85a98a" opacity=".82"/>
    <path d="M210 655 C365 610 515 680 690 625 S1010 575 1225 650" fill="none" stroke="#1d4b4d" stroke-width="8" stroke-dasharray="18 22" stroke-linecap="round"/>
</svg>
