<svg xmlns="http://www.w3.org/2000/svg" width="1400" height="900" viewBox="0 0 1400 900" role="img" aria-labelledby="title desc">
  <title id="title">RouteWonder: Dónde viajar según la estación: 24 ideas fáciles de elegir</title>
  <desc id="desc">Ilustración editorial 0 para Dónde viajar según la estación: 24 ideas fáciles de elegir, con motivo season.</desc>
  
  <defs>
    <pattern id="grid" width="72" height="72" patternUnits="userSpaceOnUse">
      <path d="M0 .5H80M.5 0V80" stroke="#253041" stroke-opacity=".08" fill="none"/>
    </pattern>
    <filter id="noise">
      <feTurbulence type="fractalNoise" baseFrequency=".75" numOctaves="3" stitchTiles="stitch"/>
      <feColorMatrix type="saturate" values="0"/>
      <feComponentTransfer><feFuncA type="table" tableValues="0 0.12"/></feComponentTransfer>
    </filter>
    <linearGradient id="wash" x1="0" y1="0" x2="1" y2="1">
      <stop offset="0" stop-color="#f4efe8"/>
      <stop offset=".58" stop-color="#e4c16e" stop-opacity=".18"/>
      <stop offset="1" stop-color="#c9d3cf" stop-opacity=".55"/>
    </linearGradient>
  </defs>
  <rect width="1400" height="900" fill="url(#wash)"/>
  <rect width="1400" height="900" fill="url(#grid)"/>
  <rect width="1400" height="900" filter="url(#noise)" opacity=".58"/>
  
    <circle cx="1053" cy="260" r="142" fill="#c9d3cf" opacity=".5"/>
    <path d="M0 680 C190 560 405 640 610 568 C820 495 1030 560 1400 470 V900 H0Z" fill="#253041" opacity=".18"/>
    <g transform="translate(170 600)"><path d="M0 100 C36 20 84 20 120 100Z" fill="#e4c16e" opacity=".72"/><path d="M60 100 V160" stroke="#253041" stroke-width="8"/></g><g transform="translate(330 613)"><path d="M0 100 C36 20 84 20 120 100Z" fill="#9a6a49" opacity=".72"/><path d="M60 100 V160" stroke="#253041" stroke-width="8"/></g><g transform="translate(490 546)"><path d="M0 100 C36 20 84 20 120 100Z" fill="#e4c16e" opacity=".72"/><path d="M60 100 V160" stroke="#253041" stroke-width="8"/></g><g transform="translate(880 559)"><path d="M0 100 C36 20 84 20 120 100Z" fill="#9a6a49" opacity=".72"/><path d="M60 100 V160" stroke="#253041" stroke-width="8"/></g><g transform="translate(1060 572)"><path d="M0 100 C36 20 84 20 120 100Z" fill="#e4c16e" opacity=".72"/><path d="M60 100 V160" stroke="#253041" stroke-width="8"/></g><g transform="translate(1230 585)"><path d="M0 100 C36 20 84 20 120 100Z" fill="#9a6a49" opacity=".72"/><path d="M60 100 V160" stroke="#253041" stroke-width="8"/></g>
    <path d="M112 220 C260 175 360 260 490 215 S735 160 910 220" fill="none" stroke="#9a6a49" stroke-width="8" stroke-dasharray="2 26" stroke-linecap="round"/>
</svg>
