<svg xmlns="http://www.w3.org/2000/svg" width="1400" height="900" viewBox="0 0 1400 900" role="img" aria-labelledby="title desc">
  <title id="title">RouteWonder: Estambul más allá de Sultanahmet: los barrios que lo cambian todo</title>
  <desc id="desc">Ilustración editorial 9 para Estambul más allá de Sultanahmet: los barrios que lo cambian todo, con motivo city.</desc>
  
  <defs>
    <pattern id="grid" width="69" height="71" patternUnits="userSpaceOnUse">
      <path d="M0 .5H80M.5 0V80" stroke="#26262b" stroke-opacity=".08" fill="none"/>
    </pattern>
    <filter id="noise">
      <feTurbulence type="fractalNoise" baseFrequency=".75" numOctaves="3" stitchTiles="stitch"/>
      <feColorMatrix type="saturate" values="0"/>
      <feComponentTransfer><feFuncA type="table" tableValues="0 0.09"/></feComponentTransfer>
    </filter>
    <linearGradient id="wash" x1="0" y1="0" x2="1" y2="1">
      <stop offset="0" stop-color="#f7f2ea"/>
      <stop offset=".58" stop-color="#57616f" stop-opacity=".18"/>
      <stop offset="1" stop-color="#d4b77b" stop-opacity=".55"/>
    </linearGradient>
  </defs>
  <rect width="1400" height="900" fill="url(#wash)"/>
  <rect width="1400" height="900" fill="url(#grid)"/>
  <rect width="1400" height="900" filter="url(#noise)" opacity=".58"/>
  
    <rect y="585" width="1400" height="315" fill="#26262b" opacity=".12"/>
    <g transform="translate(90 275)"><rect width="82" height="385" rx="6" fill="#9f563a" opacity=".64"/><path d="M0 0 L41 -54 L82 0Z" fill="#d4b77b" opacity=".8"/><circle cx="35" cy="88" r="11" fill="#f7f2ea" opacity=".6"/></g><g transform="translate(210 354)"><rect width="106" height="282" rx="18" fill="#26262b" opacity=".78"/><path d="M0 0 L53 -54 L106 0Z" fill="#d4b77b" opacity=".8"/><circle cx="35" cy="88" r="11" fill="#f7f2ea" opacity=".6"/></g><g transform="translate(340 323)"><rect width="130" height="299" rx="6" fill="#9f563a" opacity=".64"/><path d="M0 0 L65 -54 L130 0Z" fill="#d4b77b" opacity=".8"/><circle cx="35" cy="88" r="11" fill="#f7f2ea" opacity=".6"/></g><g transform="translate(470 292)"><rect width="82" height="316" rx="18" fill="#26262b" opacity=".78"/><path d="M0 0 L41 -54 L82 0Z" fill="#d4b77b" opacity=".8"/><circle cx="35" cy="88" r="11" fill="#f7f2ea" opacity=".6"/></g><g transform="translate(620 261)"><rect width="106" height="333" rx="6" fill="#9f563a" opacity=".64"/><path d="M0 0 L53 -54 L106 0Z" fill="#d4b77b" opacity=".8"/><circle cx="35" cy="88" r="11" fill="#f7f2ea" opacity=".6"/></g><g transform="translate(760 340)"><rect width="130" height="350" rx="18" fill="#26262b" opacity=".78"/><path d="M0 0 L65 -54 L130 0Z" fill="#d4b77b" opacity=".8"/><circle cx="35" cy="88" r="11" fill="#f7f2ea" opacity=".6"/></g><g transform="translate(900 309)"><rect width="82" height="367" rx="6" fill="#9f563a" opacity=".64"/><path d="M0 0 L41 -54 L82 0Z" fill="#d4b77b" opacity=".8"/><circle cx="35" cy="88" r="11" fill="#f7f2ea" opacity=".6"/></g><g transform="translate(1040 278)"><rect width="106" height="384" rx="18" fill="#26262b" opacity=".78"/><path d="M0 0 L53 -54 L106 0Z" fill="#d4b77b" opacity=".8"/><circle cx="35" cy="88" r="11" fill="#f7f2ea" opacity=".6"/></g><g transform="translate(1180 357)"><rect width="130" height="281" rx="6" fill="#9f563a" opacity=".64"/><path d="M0 0 L65 -54 L130 0Z" fill="#d4b77b" opacity=".8"/><circle cx="35" cy="88" r="11" fill="#f7f2ea" opacity=".6"/></g>
    <path d="M0 742 C250 690 420 720 650 690 C870 662 1050 705 1400 650 V900 H0Z" fill="#d4b77b" opacity=".38"/>
</svg>
