<svg xmlns="http://www.w3.org/2000/svg" width="1400" height="900" viewBox="0 0 1400 900" role="img" aria-labelledby="title desc">
  <title id="title">RouteWonder: Eslovenia en una semana: Bled, Bohinj y los Alpes que no esperabas</title>
  <desc id="desc">Ilustración editorial 4 para Eslovenia en una semana: Bled, Bohinj y los Alpes que no esperabas, con motivo canal.</desc>
  
  <defs>
    <pattern id="grid" width="78" height="54" patternUnits="userSpaceOnUse">
      <path d="M0 .5H80M.5 0V80" stroke="#26394a" stroke-opacity=".08" fill="none"/>
    </pattern>
    <filter id="noise">
      <feTurbulence type="fractalNoise" baseFrequency=".75" numOctaves="3" stitchTiles="stitch"/>
      <feColorMatrix type="saturate" values="0"/>
      <feComponentTransfer><feFuncA type="table" tableValues="0 0.14"/></feComponentTransfer>
    </filter>
    <linearGradient id="wash" x1="0" y1="0" x2="1" y2="1">
      <stop offset="0" stop-color="#f8f3ea"/>
      <stop offset=".58" stop-color="#e5d8c5" stop-opacity=".18"/>
      <stop offset="1" stop-color="#bf7b45" stop-opacity=".55"/>
    </linearGradient>
  </defs>
  <rect width="1400" height="900" fill="url(#wash)"/>
  <rect width="1400" height="900" fill="url(#grid)"/>
  <rect width="1400" height="900" filter="url(#noise)" opacity=".58"/>
  
    <path d="M0 606 C210 550 380 620 580 575 S950 500 1400 575 V900 H0Z" fill="#e5d8c5" opacity=".55"/>
    <path d="M0 650 C235 590 410 670 615 625 S980 545 1400 620" fill="none" stroke="#7d9aa3" stroke-width="18" stroke-opacity=".72"/>
    <path d="M0 706 C230 650 415 728 630 680 S990 600 1400 675" fill="none" stroke="#26394a" stroke-width="8" stroke-opacity=".28"/>
    <path d="M458 626 C532 486 808 486 888 626" fill="none" stroke="#26394a" stroke-width="38" stroke-linecap="round" opacity=".48"/>
    <path d="M505 626 C580 532 760 532 838 626" fill="none" stroke="#f8f3ea" stroke-width="13" stroke-linecap="round" opacity=".9"/>
    <g transform="translate(482 295)"><rect width="128" height="300" rx="10" fill="#7d9aa3" opacity=".9"/><path d="M0 0 L64 -58 L128 0Z" fill="#bf7b45"/><rect x="37" y="86" width="43" height="63" rx="6" fill="#f8f3ea" opacity=".64"/></g>
    <g transform="translate(652 250)"><rect width="156" height="345" rx="10" fill="#bf7b45" opacity=".86"/><path d="M0 0 L78 -70 L156 0Z" fill="#26394a" opacity=".72"/><rect x="50" y="102" width="48" height="70" rx="7" fill="#f8f3ea" opacity=".6"/></g>
    <g transform="translate(847 320)"><rect width="118" height="270" rx="10" fill="#f8f3ea" opacity=".88" stroke="#26394a" stroke-opacity=".14"/><path d="M0 0 L59 -54 L118 0Z" fill="#7d9aa3"/><rect x="34" y="78" width="38" height="58" rx="6" fill="#e5d8c5" opacity=".76"/></g>
    <g transform="translate(105 406)"><rect width="98" height="210" fill="#f8f3ea" stroke="#26394a" stroke-opacity=".18"/><path d="M0 0 L49 -44 L98 0Z" fill="#7d9aa3"/><rect x="25" y="58" width="31" height="41" fill="#e5d8c5" opacity=".58"/></g><g transform="translate(245 415)"><rect width="98" height="210" fill="#bf7b45" stroke="#26394a" stroke-opacity=".18"/><path d="M0 0 L49 -44 L98 0Z" fill="#7d9aa3"/><rect x="25" y="58" width="31" height="41" fill="#e5d8c5" opacity=".58"/></g><g transform="translate(1065 386)"><rect width="98" height="210" fill="#f8f3ea" stroke="#26394a" stroke-opacity=".18"/><path d="M0 0 L49 -44 L98 0Z" fill="#7d9aa3"/><rect x="25" y="58" width="31" height="41" fill="#e5d8c5" opacity=".58"/></g><g transform="translate(1205 395)"><rect width="98" height="210" fill="#bf7b45" stroke="#26394a" stroke-opacity=".18"/><path d="M0 0 L49 -44 L98 0Z" fill="#7d9aa3"/><rect x="25" y="58" width="31" height="41" fill="#e5d8c5" opacity=".58"/></g>
</svg>
