<svg xmlns="http://www.w3.org/2000/svg" width="1400" height="900" viewBox="0 0 1400 900" role="img" aria-labelledby="title desc">
  <title id="title">RouteWonder: Malta en enero: la isla mediterránea cuando cuesta la mitad</title>
  <desc id="desc">Ilustración editorial 9 para Malta en enero: la isla mediterránea cuando cuesta la mitad, con motivo island.</desc>
  
  <defs>
    <pattern id="grid" width="55" height="65" patternUnits="userSpaceOnUse">
      <path d="M0 .5H80M.5 0V80" stroke="#1d4b4d" stroke-opacity=".08" fill="none"/>
    </pattern>
    <filter id="noise">
      <feTurbulence type="fractalNoise" baseFrequency=".75" numOctaves="3" stitchTiles="stitch"/>
      <feColorMatrix type="saturate" values="0"/>
      <feComponentTransfer><feFuncA type="table" tableValues="0 0.15000000000000002"/></feComponentTransfer>
    </filter>
    <linearGradient id="wash" x1="0" y1="0" x2="1" y2="1">
      <stop offset="0" stop-color="#f8f1df"/>
      <stop offset=".58" stop-color="#efe2c3" stop-opacity=".18"/>
      <stop offset="1" stop-color="#d69a4d" stop-opacity=".55"/>
    </linearGradient>
  </defs>
  <rect width="1400" height="900" fill="url(#wash)"/>
  <rect width="1400" height="900" fill="url(#grid)"/>
  <rect width="1400" height="900" filter="url(#noise)" opacity=".58"/>
  
    <rect y="560" width="1400" height="340" fill="#efe2c3" opacity=".34"/>
    <path d="M0 585 C170 543 330 633 520 585 S865 535 1400 577" fill="none" stroke="#1d4b4d" stroke-opacity=".16" stroke-width="5"/><path d="M0 655 C170 613 330 703 520 655 S865 605 1400 665" fill="none" stroke="#f8f1df" stroke-opacity=".58" stroke-width="9"/><path d="M0 732 C170 690 330 780 520 732 S865 682 1400 724" fill="none" stroke="#1d4b4d" stroke-opacity=".16" stroke-width="5"/><path d="M0 805 C170 763 330 853 520 805 S865 755 1400 815" fill="none" stroke="#f8f1df" stroke-opacity=".58" stroke-width="9"/>
    <path d="M280 591 C368 423 510 463 595 576 C490 611 370 605 280 591Z" fill="#85a98a" opacity=".82"/><path d="M575 572 C663 410 805 440 890 585 C785 622 665 598 575 572Z" fill="#d69a4d" opacity=".82"/><path d="M900 595 C988 397 1130 457 1215 568 C1110 609 990 609 900 595Z" fill="#85a98a" opacity=".82"/>
    <path d="M210 655 C365 610 515 680 690 625 S1010 575 1225 650" fill="none" stroke="#1d4b4d" stroke-width="8" stroke-dasharray="18 22" stroke-linecap="round"/>
</svg>
