<svg xmlns="http://www.w3.org/2000/svg" width="1400" height="900" viewBox="0 0 1400 900" role="img" aria-labelledby="title desc">
  <title id="title">RouteWonder: Naxos: la isla griega más grande y la menos visitada todavía</title>
  <desc id="desc">Ilustración editorial 2 para Naxos: la isla griega más grande y la menos visitada todavía, con motivo island.</desc>
  
  <defs>
    <pattern id="grid" width="72" height="68" patternUnits="userSpaceOnUse">
      <path d="M0 .5H80M.5 0V80" stroke="#1d4b4d" stroke-opacity=".08" fill="none"/>
    </pattern>
    <filter id="noise">
      <feTurbulence type="fractalNoise" baseFrequency=".75" numOctaves="3" stitchTiles="stitch"/>
      <feColorMatrix type="saturate" values="0"/>
      <feComponentTransfer><feFuncA type="table" tableValues="0 0.08"/></feComponentTransfer>
    </filter>
    <linearGradient id="wash" x1="0" y1="0" x2="1" y2="1">
      <stop offset="0" stop-color="#f8f1df"/>
      <stop offset=".58" stop-color="#efe2c3" stop-opacity=".18"/>
      <stop offset="1" stop-color="#d69a4d" stop-opacity=".55"/>
    </linearGradient>
  </defs>
  <rect width="1400" height="900" fill="url(#wash)"/>
  <rect width="1400" height="900" fill="url(#grid)"/>
  <rect width="1400" height="900" filter="url(#noise)" opacity=".58"/>
  
    <rect y="560" width="1400" height="340" fill="#efe2c3" opacity=".34"/>
    <path d="M0 585 C170 543 330 633 520 585 S865 535 1400 577" fill="none" stroke="#1d4b4d" stroke-opacity=".16" stroke-width="5"/><path d="M0 655 C170 613 330 703 520 655 S865 605 1400 665" fill="none" stroke="#f8f1df" stroke-opacity=".58" stroke-width="9"/><path d="M0 732 C170 690 330 780 520 732 S865 682 1400 724" fill="none" stroke="#1d4b4d" stroke-opacity=".16" stroke-width="5"/><path d="M0 805 C170 763 330 853 520 805 S865 755 1400 815" fill="none" stroke="#f8f1df" stroke-opacity=".58" stroke-width="9"/>
    <path d="M280 580 C368 410 510 464 595 583 C490 612 370 610 280 580Z" fill="#85a98a" opacity=".82"/><path d="M575 561 C663 397 805 441 890 566 C785 623 665 603 575 561Z" fill="#d69a4d" opacity=".82"/><path d="M900 584 C988 420 1130 458 1215 575 C1110 610 990 596 900 584Z" fill="#85a98a" opacity=".82"/>
    <path d="M210 655 C365 610 515 680 690 625 S1010 575 1225 650" fill="none" stroke="#1d4b4d" stroke-width="8" stroke-dasharray="18 22" stroke-linecap="round"/>
</svg>
