<svg xmlns="http://www.w3.org/2000/svg" width="1400" height="900" viewBox="0 0 1400 900" role="img" aria-labelledby="title desc">
  <title id="title">RouteWonder: Oporto y el Duero: la ruta de vino y tren que conecta los dos</title>
  <desc id="desc">Ilustración editorial 2 para Oporto y el Duero: la ruta de vino y tren que conecta los dos, con motivo train.</desc>
  
  <defs>
    <pattern id="grid" width="71" height="65" patternUnits="userSpaceOnUse">
      <path d="M0 .5H80M.5 0V80" stroke="#263a34" stroke-opacity=".08" fill="none"/>
    </pattern>
    <filter id="noise">
      <feTurbulence type="fractalNoise" baseFrequency=".75" numOctaves="3" stitchTiles="stitch"/>
      <feColorMatrix type="saturate" values="0"/>
      <feComponentTransfer><feFuncA type="table" tableValues="0 0.11"/></feComponentTransfer>
    </filter>
    <linearGradient id="wash" x1="0" y1="0" x2="1" y2="1">
      <stop offset="0" stop-color="#f6efe3"/>
      <stop offset=".58" stop-color="#415f6b" stop-opacity=".18"/>
      <stop offset="1" stop-color="#d5b067" stop-opacity=".55"/>
    </linearGradient>
  </defs>
  <rect width="1400" height="900" fill="url(#wash)"/>
  <rect width="1400" height="900" fill="url(#grid)"/>
  <rect width="1400" height="900" filter="url(#noise)" opacity=".58"/>
  
    <path d="M0 660 C220 610 380 635 560 590 S930 515 1400 540 V900 H0Z" fill="#d5b067" opacity=".55"/>
    <path d="M0 710 C270 600 450 680 680 585 S1030 520 1400 590" fill="none" stroke="#263a34" stroke-width="16"/>
    <path d="M0 710 C270 600 450 680 680 585 S1030 520 1400 590" fill="none" stroke="#f6efe3" stroke-width="5"/>
    <g transform="translate(728 533)"><rect width="230" height="66" rx="20" fill="#263a34"/><rect x="28" y="18" width="42" height="22" rx="5" fill="#d5b067"/><rect x="88" y="18" width="42" height="22" rx="5" fill="#d5b067"/><rect x="148" y="18" width="42" height="22" rx="5" fill="#d5b067"/><circle cx="58" cy="70" r="14" fill="#8c3f2d"/><circle cx="174" cy="70" r="14" fill="#8c3f2d"/></g>
    <path d="M160 610 L330 310 L480 610 ZM410 610 L600 250 L820 610 ZM760 610 L930 340 L1080 610 Z" fill="#263a34" opacity=".22"/>
</svg>
