<svg xmlns="http://www.w3.org/2000/svg" width="1400" height="900" viewBox="0 0 1400 900" role="img" aria-labelledby="title desc">
  <title id="title">RouteWonder: Países a los que puedes viajar desde España sin pasaporte</title>
  <desc id="desc">Ilustración editorial 9 para Países a los que puedes viajar desde España sin pasaporte, con motivo atlas.</desc>
  
  <defs>
    <pattern id="grid" width="67" height="61" patternUnits="userSpaceOnUse">
      <path d="M0 .5H80M.5 0V80" stroke="#1f2b27" stroke-opacity=".08" fill="none"/>
    </pattern>
    <filter id="noise">
      <feTurbulence type="fractalNoise" baseFrequency=".75" numOctaves="3" stitchTiles="stitch"/>
      <feColorMatrix type="saturate" values="0"/>
      <feComponentTransfer><feFuncA type="table" tableValues="0 0.11"/></feComponentTransfer>
    </filter>
    <linearGradient id="wash" x1="0" y1="0" x2="1" y2="1">
      <stop offset="0" stop-color="#f8f4ea"/>
      <stop offset=".58" stop-color="#657a6a" stop-opacity=".18"/>
      <stop offset="1" stop-color="#d7c5a1" stop-opacity=".55"/>
    </linearGradient>
  </defs>
  <rect width="1400" height="900" fill="url(#wash)"/>
  <rect width="1400" height="900" fill="url(#grid)"/>
  <rect width="1400" height="900" filter="url(#noise)" opacity=".58"/>
  
    <path d="M190 250 C340 180 490 205 610 300 C760 420 960 300 1150 370 C1250 408 1300 510 1270 620 C1120 560 945 615 820 710 C640 848 390 780 240 690 C120 620 85 405 190 250Z" fill="#d7c5a1" opacity=".55" stroke="#1f2b27" stroke-opacity=".18" stroke-width="6"/>
    <circle cx="935" cy="520" r="27" fill="#657a6a" opacity=".88"/><circle cx="1116" cy="617" r="28" fill="#bd6646" opacity=".88"/><circle cx="407" cy="354" r="29" fill="#657a6a" opacity=".88"/><circle cx="588" cy="451" r="30" fill="#bd6646" opacity=".88"/><circle cx="769" cy="548" r="31" fill="#657a6a" opacity=".88"/><circle cx="950" cy="285" r="32" fill="#bd6646" opacity=".88"/>
    <path d="M260 650 C420 520 555 540 690 440 S960 350 1160 485" fill="none" stroke="#1f2b27" stroke-width="12" stroke-dasharray="28 24" stroke-linecap="round"/>
</svg>
