<svg xmlns="http://www.w3.org/2000/svg" width="1400" height="900" viewBox="0 0 1400 900" role="img" aria-labelledby="title desc">
  <title id="title">RouteWonder: Picos de Europa: la montaña española más accesible y subestimada</title>
  <desc id="desc">Ilustración editorial 1 para Picos de Europa: la montaña española más accesible y subestimada, con motivo road.</desc>
  
  <defs>
    <pattern id="grid" width="52" height="70" patternUnits="userSpaceOnUse">
      <path d="M0 .5H80M.5 0V80" stroke="#29352f" stroke-opacity=".08" fill="none"/>
    </pattern>
    <filter id="noise">
      <feTurbulence type="fractalNoise" baseFrequency=".75" numOctaves="3" stitchTiles="stitch"/>
      <feColorMatrix type="saturate" values="0"/>
      <feComponentTransfer><feFuncA type="table" tableValues="0 0.08"/></feComponentTransfer>
    </filter>
    <linearGradient id="wash" x1="0" y1="0" x2="1" y2="1">
      <stop offset="0" stop-color="#f7f1e7"/>
      <stop offset=".58" stop-color="#6f7d59" stop-opacity=".18"/>
      <stop offset="1" stop-color="#d6c29a" stop-opacity=".55"/>
    </linearGradient>
  </defs>
  <rect width="1400" height="900" fill="url(#wash)"/>
  <rect width="1400" height="900" fill="url(#grid)"/>
  <rect width="1400" height="900" filter="url(#noise)" opacity=".58"/>
  
    <path d="M0 700 C210 610 350 620 520 690 C690 760 800 525 1020 565 C1180 595 1270 715 1400 675 V900 H0Z" fill="#d6c29a" opacity=".6"/>
    <path d="M630 900 C620 760 690 650 790 580 C920 490 930 390 850 270" fill="none" stroke="#29352f" stroke-width="118" stroke-linecap="round"/>
    <path d="M630 900 C620 760 690 650 790 580 C920 490 930 390 850 270" fill="none" stroke="#f7f1e7" stroke-width="12" stroke-dasharray="34 34" stroke-linecap="round"/>
    <circle cx="994" cy="368" r="72" fill="#b15f3e" opacity=".85"/>
    <path d="M130 620 L280 395 L405 620 ZM940 640 L1090 380 L1260 640 Z" fill="#29352f" opacity=".2"/>
</svg>
